<mxfile host="app.diagrams.net" agent="Mozilla/5.0 (Windows NT 10.0; Win64; x64) AppleWebKit/537.36 (KHTML, like Gecko) Chrome/136.0.0.0 Safari/537.36" version="27.0.3">
  <diagram name="Страница — 1" id="5109Wd0p5QEdKRCVnzEx">
    <mxGraphModel dx="2728" dy="1036" grid="1" gridSize="10" guides="1" tooltips="1" connect="1" arrows="1" fold="1" page="1" pageScale="1" pageWidth="827" pageHeight="1169" math="0" shadow="0">
      <root>
        <mxCell id="0" />
        <mxCell id="1" parent="0" />
        <mxCell id="eLe6Ruxtf43VfmzEIZZD-12" style="edgeStyle=orthogonalEdgeStyle;rounded=0;orthogonalLoop=1;jettySize=auto;html=1;exitX=0.5;exitY=1;exitDx=0;exitDy=0;entryX=0.5;entryY=0;entryDx=0;entryDy=0;" edge="1" parent="1" source="eLe6Ruxtf43VfmzEIZZD-3" target="eLe6Ruxtf43VfmzEIZZD-5">
          <mxGeometry relative="1" as="geometry" />
        </mxCell>
        <mxCell id="eLe6Ruxtf43VfmzEIZZD-3" value="&lt;font style=&quot;font-size: 18px;&quot;&gt;Sākums&lt;/font&gt;" style="ellipse;whiteSpace=wrap;html=1;" vertex="1" parent="1">
          <mxGeometry x="343.75" y="35" width="122.5" height="65" as="geometry" />
        </mxCell>
        <mxCell id="eLe6Ruxtf43VfmzEIZZD-13" style="edgeStyle=orthogonalEdgeStyle;rounded=0;orthogonalLoop=1;jettySize=auto;html=1;exitX=0.5;exitY=1;exitDx=0;exitDy=0;entryX=0.5;entryY=0;entryDx=0;entryDy=0;" edge="1" parent="1" source="eLe6Ruxtf43VfmzEIZZD-5" target="eLe6Ruxtf43VfmzEIZZD-11">
          <mxGeometry relative="1" as="geometry" />
        </mxCell>
        <mxCell id="eLe6Ruxtf43VfmzEIZZD-5" value="&lt;font style=&quot;font-size: 18px;&quot;&gt;Ievadi pirmo skaitli&lt;/font&gt;" style="shape=parallelogram;perimeter=parallelogramPerimeter;whiteSpace=wrap;html=1;fixedSize=1;" vertex="1" parent="1">
          <mxGeometry x="337.5" y="130" width="135" height="70" as="geometry" />
        </mxCell>
        <mxCell id="eLe6Ruxtf43VfmzEIZZD-16" style="edgeStyle=orthogonalEdgeStyle;rounded=0;orthogonalLoop=1;jettySize=auto;html=1;exitX=0.5;exitY=1;exitDx=0;exitDy=0;entryX=0.5;entryY=0;entryDx=0;entryDy=0;" edge="1" parent="1" source="eLe6Ruxtf43VfmzEIZZD-8" target="eLe6Ruxtf43VfmzEIZZD-15">
          <mxGeometry relative="1" as="geometry" />
        </mxCell>
        <mxCell id="eLe6Ruxtf43VfmzEIZZD-8" value="&lt;font style=&quot;font-size: 18px;&quot;&gt;Ievadi otro skaitli&lt;/font&gt;" style="shape=parallelogram;perimeter=parallelogramPerimeter;whiteSpace=wrap;html=1;fixedSize=1;" vertex="1" parent="1">
          <mxGeometry x="340" y="330" width="129.99" height="70" as="geometry" />
        </mxCell>
        <mxCell id="eLe6Ruxtf43VfmzEIZZD-14" style="edgeStyle=orthogonalEdgeStyle;rounded=0;orthogonalLoop=1;jettySize=auto;html=1;exitX=0.5;exitY=1;exitDx=0;exitDy=0;entryX=0.5;entryY=0;entryDx=0;entryDy=0;" edge="1" parent="1" source="eLe6Ruxtf43VfmzEIZZD-11" target="eLe6Ruxtf43VfmzEIZZD-8">
          <mxGeometry relative="1" as="geometry" />
        </mxCell>
        <mxCell id="eLe6Ruxtf43VfmzEIZZD-11" value="&lt;font style=&quot;font-size: 24px;&quot;&gt;52&lt;/font&gt;" style="rounded=0;whiteSpace=wrap;html=1;" vertex="1" parent="1">
          <mxGeometry x="337.5" y="230" width="142.5" height="70" as="geometry" />
        </mxCell>
        <mxCell id="eLe6Ruxtf43VfmzEIZZD-18" style="edgeStyle=orthogonalEdgeStyle;rounded=0;orthogonalLoop=1;jettySize=auto;html=1;exitX=0.5;exitY=1;exitDx=0;exitDy=0;entryX=0.5;entryY=0;entryDx=0;entryDy=0;" edge="1" parent="1" source="eLe6Ruxtf43VfmzEIZZD-15" target="eLe6Ruxtf43VfmzEIZZD-17">
          <mxGeometry relative="1" as="geometry" />
        </mxCell>
        <mxCell id="eLe6Ruxtf43VfmzEIZZD-15" value="&lt;font style=&quot;font-size: 24px;&quot;&gt;25&lt;/font&gt;" style="rounded=0;whiteSpace=wrap;html=1;" vertex="1" parent="1">
          <mxGeometry x="334.99" y="430" width="140" height="70" as="geometry" />
        </mxCell>
        <mxCell id="eLe6Ruxtf43VfmzEIZZD-21" style="edgeStyle=orthogonalEdgeStyle;rounded=0;orthogonalLoop=1;jettySize=auto;html=1;exitX=1;exitY=0.5;exitDx=0;exitDy=0;entryX=0.5;entryY=0;entryDx=0;entryDy=0;" edge="1" parent="1" source="eLe6Ruxtf43VfmzEIZZD-17" target="eLe6Ruxtf43VfmzEIZZD-19">
          <mxGeometry relative="1" as="geometry">
            <mxPoint x="530" y="630" as="targetPoint" />
            <Array as="points">
              <mxPoint x="531" y="580" />
            </Array>
          </mxGeometry>
        </mxCell>
        <mxCell id="eLe6Ruxtf43VfmzEIZZD-24" style="edgeStyle=orthogonalEdgeStyle;rounded=0;orthogonalLoop=1;jettySize=auto;html=1;exitX=0.5;exitY=1;exitDx=0;exitDy=0;" edge="1" parent="1" source="eLe6Ruxtf43VfmzEIZZD-39" target="eLe6Ruxtf43VfmzEIZZD-22">
          <mxGeometry relative="1" as="geometry">
            <mxPoint x="280" y="580" as="targetPoint" />
            <Array as="points">
              <mxPoint x="240" y="730" />
              <mxPoint x="240" y="730" />
            </Array>
          </mxGeometry>
        </mxCell>
        <mxCell id="eLe6Ruxtf43VfmzEIZZD-17" value="&lt;font style=&quot;font-size: 24px;&quot;&gt;52 = 25?&lt;/font&gt;" style="rhombus;whiteSpace=wrap;html=1;" vertex="1" parent="1">
          <mxGeometry x="290" y="540" width="140.01" height="80" as="geometry" />
        </mxCell>
        <mxCell id="eLe6Ruxtf43VfmzEIZZD-26" style="edgeStyle=orthogonalEdgeStyle;rounded=0;orthogonalLoop=1;jettySize=auto;html=1;exitX=1;exitY=0.5;exitDx=0;exitDy=0;entryX=0;entryY=0.5;entryDx=0;entryDy=0;" edge="1" parent="1" source="eLe6Ruxtf43VfmzEIZZD-19" target="eLe6Ruxtf43VfmzEIZZD-25">
          <mxGeometry relative="1" as="geometry" />
        </mxCell>
        <mxCell id="eLe6Ruxtf43VfmzEIZZD-19" value="&lt;font style=&quot;font-size: 24px;&quot;&gt;52 = 25&lt;/font&gt;" style="shape=parallelogram;perimeter=parallelogramPerimeter;whiteSpace=wrap;html=1;fixedSize=1;" vertex="1" parent="1">
          <mxGeometry x="466.25" y="650" width="130" height="60" as="geometry" />
        </mxCell>
        <mxCell id="eLe6Ruxtf43VfmzEIZZD-29" style="edgeStyle=orthogonalEdgeStyle;rounded=0;orthogonalLoop=1;jettySize=auto;html=1;exitX=1;exitY=1;exitDx=0;exitDy=0;" edge="1" parent="1" source="eLe6Ruxtf43VfmzEIZZD-22" target="eLe6Ruxtf43VfmzEIZZD-28">
          <mxGeometry relative="1" as="geometry">
            <mxPoint x="230" y="860" as="targetPoint" />
            <Array as="points">
              <mxPoint x="270" y="850" />
              <mxPoint x="270" y="1060" />
            </Array>
          </mxGeometry>
        </mxCell>
        <mxCell id="eLe6Ruxtf43VfmzEIZZD-42" style="edgeStyle=orthogonalEdgeStyle;rounded=0;orthogonalLoop=1;jettySize=auto;html=1;exitX=0;exitY=1;exitDx=0;exitDy=0;" edge="1" parent="1" source="eLe6Ruxtf43VfmzEIZZD-22" target="eLe6Ruxtf43VfmzEIZZD-35">
          <mxGeometry relative="1" as="geometry">
            <mxPoint x="160" y="1050" as="targetPoint" />
            <Array as="points">
              <mxPoint x="207" y="850" />
              <mxPoint x="207" y="1060" />
            </Array>
          </mxGeometry>
        </mxCell>
        <mxCell id="eLe6Ruxtf43VfmzEIZZD-22" value="&lt;font style=&quot;font-size: 24px;&quot;&gt;52 &amp;gt; 25?&lt;/font&gt;" style="rhombus;whiteSpace=wrap;html=1;" vertex="1" parent="1">
          <mxGeometry x="176.56" y="790" width="126.87" height="80" as="geometry" />
        </mxCell>
        <mxCell id="eLe6Ruxtf43VfmzEIZZD-27" style="edgeStyle=orthogonalEdgeStyle;rounded=0;orthogonalLoop=1;jettySize=auto;html=1;exitX=0.5;exitY=0;exitDx=0;exitDy=0;" edge="1" parent="1" source="eLe6Ruxtf43VfmzEIZZD-25">
          <mxGeometry relative="1" as="geometry">
            <mxPoint x="400" y="520" as="targetPoint" />
            <Array as="points">
              <mxPoint x="705" y="520" />
              <mxPoint x="705" y="520" />
            </Array>
          </mxGeometry>
        </mxCell>
        <mxCell id="eLe6Ruxtf43VfmzEIZZD-25" value="&lt;font style=&quot;font-size: 18px;&quot;&gt;Nepareizi!&lt;/font&gt;" style="rounded=0;whiteSpace=wrap;html=1;" vertex="1" parent="1">
          <mxGeometry x="640" y="645" width="130" height="70" as="geometry" />
        </mxCell>
        <mxCell id="eLe6Ruxtf43VfmzEIZZD-31" style="edgeStyle=orthogonalEdgeStyle;rounded=0;orthogonalLoop=1;jettySize=auto;html=1;entryX=0.468;entryY=1;entryDx=0;entryDy=0;entryPerimeter=0;" edge="1" parent="1" source="eLe6Ruxtf43VfmzEIZZD-28" target="eLe6Ruxtf43VfmzEIZZD-30">
          <mxGeometry relative="1" as="geometry">
            <mxPoint x="434" y="1060" as="sourcePoint" />
            <Array as="points">
              <mxPoint x="413" y="1030" />
              <mxPoint x="413" y="1030" />
            </Array>
          </mxGeometry>
        </mxCell>
        <mxCell id="eLe6Ruxtf43VfmzEIZZD-28" value="&lt;font style=&quot;font-size: 24px;&quot;&gt;52 &amp;lt; 25&lt;/font&gt;" style="shape=parallelogram;perimeter=parallelogramPerimeter;whiteSpace=wrap;html=1;fixedSize=1;" vertex="1" parent="1">
          <mxGeometry x="349" y="1030" width="130" height="60" as="geometry" />
        </mxCell>
        <mxCell id="eLe6Ruxtf43VfmzEIZZD-34" style="edgeStyle=orthogonalEdgeStyle;rounded=0;orthogonalLoop=1;jettySize=auto;html=1;exitX=0.5;exitY=0;exitDx=0;exitDy=0;" edge="1" parent="1" source="eLe6Ruxtf43VfmzEIZZD-30">
          <mxGeometry relative="1" as="geometry">
            <mxPoint x="240" y="750" as="targetPoint" />
            <Array as="points">
              <mxPoint x="400" y="880" />
              <mxPoint x="400" y="750" />
            </Array>
          </mxGeometry>
        </mxCell>
        <mxCell id="eLe6Ruxtf43VfmzEIZZD-30" value="&lt;font style=&quot;font-size: 18px;&quot;&gt;Nepareizi!&lt;/font&gt;" style="rounded=0;whiteSpace=wrap;html=1;" vertex="1" parent="1">
          <mxGeometry x="354" y="860" width="126" height="70" as="geometry" />
        </mxCell>
        <mxCell id="eLe6Ruxtf43VfmzEIZZD-35" value="&lt;font style=&quot;font-size: 24px;&quot;&gt;52 &amp;gt; 25&lt;/font&gt;" style="shape=parallelogram;perimeter=parallelogramPerimeter;whiteSpace=wrap;html=1;fixedSize=1;" vertex="1" parent="1">
          <mxGeometry x="-60" y="1030" width="130" height="60" as="geometry" />
        </mxCell>
        <mxCell id="eLe6Ruxtf43VfmzEIZZD-45" style="edgeStyle=orthogonalEdgeStyle;rounded=0;orthogonalLoop=1;jettySize=auto;html=1;exitX=0.5;exitY=0;exitDx=0;exitDy=0;entryX=0.5;entryY=1;entryDx=0;entryDy=0;" edge="1" parent="1" source="eLe6Ruxtf43VfmzEIZZD-38" target="eLe6Ruxtf43VfmzEIZZD-44">
          <mxGeometry relative="1" as="geometry" />
        </mxCell>
        <mxCell id="eLe6Ruxtf43VfmzEIZZD-38" value="&lt;font style=&quot;font-size: 18px;&quot;&gt;Pareizi!&lt;/font&gt;" style="rounded=0;whiteSpace=wrap;html=1;" vertex="1" parent="1">
          <mxGeometry x="-40" y="880" width="100" height="50" as="geometry" />
        </mxCell>
        <mxCell id="eLe6Ruxtf43VfmzEIZZD-40" value="" style="edgeStyle=orthogonalEdgeStyle;rounded=0;orthogonalLoop=1;jettySize=auto;html=1;exitX=0;exitY=0.5;exitDx=0;exitDy=0;" edge="1" parent="1" source="eLe6Ruxtf43VfmzEIZZD-17" target="eLe6Ruxtf43VfmzEIZZD-39">
          <mxGeometry relative="1" as="geometry">
            <mxPoint x="197" y="780" as="targetPoint" />
            <mxPoint x="290" y="580" as="sourcePoint" />
          </mxGeometry>
        </mxCell>
        <mxCell id="eLe6Ruxtf43VfmzEIZZD-39" value="&lt;font style=&quot;font-size: 24px;&quot;&gt;52 = 25&lt;/font&gt;" style="shape=parallelogram;perimeter=parallelogramPerimeter;whiteSpace=wrap;html=1;fixedSize=1;" vertex="1" parent="1">
          <mxGeometry x="180" y="640" width="120" height="60" as="geometry" />
        </mxCell>
        <mxCell id="eLe6Ruxtf43VfmzEIZZD-41" value="&lt;font style=&quot;font-size: 24px;&quot;&gt;/&lt;/font&gt;" style="text;strokeColor=none;align=center;fillColor=none;html=1;verticalAlign=middle;whiteSpace=wrap;rounded=0;" vertex="1" parent="1">
          <mxGeometry x="210" y="655" width="60" height="30" as="geometry" />
        </mxCell>
        <mxCell id="eLe6Ruxtf43VfmzEIZZD-43" style="edgeStyle=orthogonalEdgeStyle;rounded=0;orthogonalLoop=1;jettySize=auto;html=1;exitX=0.5;exitY=0;exitDx=0;exitDy=0;entryX=0.455;entryY=1.02;entryDx=0;entryDy=0;entryPerimeter=0;" edge="1" parent="1" source="eLe6Ruxtf43VfmzEIZZD-35" target="eLe6Ruxtf43VfmzEIZZD-38">
          <mxGeometry relative="1" as="geometry" />
        </mxCell>
        <mxCell id="eLe6Ruxtf43VfmzEIZZD-46" style="edgeStyle=orthogonalEdgeStyle;rounded=0;orthogonalLoop=1;jettySize=auto;html=1;exitX=1;exitY=0;exitDx=0;exitDy=0;entryX=0.5;entryY=1;entryDx=0;entryDy=0;" edge="1" parent="1" source="eLe6Ruxtf43VfmzEIZZD-44" target="eLe6Ruxtf43VfmzEIZZD-47">
          <mxGeometry relative="1" as="geometry">
            <mxPoint x="150" y="670" as="targetPoint" />
            <Array as="points">
              <mxPoint x="48" y="785" />
              <mxPoint x="90" y="785" />
            </Array>
          </mxGeometry>
        </mxCell>
        <mxCell id="eLe6Ruxtf43VfmzEIZZD-44" value="&lt;font style=&quot;font-size: 18px;&quot;&gt;Vai vēlaties atkārtot?&lt;/font&gt;" style="rhombus;whiteSpace=wrap;html=1;" vertex="1" parent="1">
          <mxGeometry x="-65" y="740" width="150" height="90" as="geometry" />
        </mxCell>
        <mxCell id="eLe6Ruxtf43VfmzEIZZD-49" style="edgeStyle=orthogonalEdgeStyle;rounded=0;orthogonalLoop=1;jettySize=auto;html=1;exitX=0.5;exitY=0;exitDx=0;exitDy=0;entryX=0.5;entryY=1;entryDx=0;entryDy=0;" edge="1" parent="1" source="eLe6Ruxtf43VfmzEIZZD-47" target="eLe6Ruxtf43VfmzEIZZD-48">
          <mxGeometry relative="1" as="geometry" />
        </mxCell>
        <mxCell id="eLe6Ruxtf43VfmzEIZZD-47" value="&lt;font style=&quot;font-size: 18px;&quot;&gt;Programma beigusies&lt;/font&gt;" style="shape=parallelogram;perimeter=parallelogramPerimeter;whiteSpace=wrap;html=1;fixedSize=1;" vertex="1" parent="1">
          <mxGeometry x="25" y="610" width="130" height="60" as="geometry" />
        </mxCell>
        <mxCell id="eLe6Ruxtf43VfmzEIZZD-48" value="&lt;font style=&quot;font-size: 18px;&quot;&gt;Beigas&lt;/font&gt;" style="ellipse;whiteSpace=wrap;html=1;" vertex="1" parent="1">
          <mxGeometry x="33.43000000000001" y="470" width="113.13" height="70" as="geometry" />
        </mxCell>
        <mxCell id="eLe6Ruxtf43VfmzEIZZD-52" style="edgeStyle=orthogonalEdgeStyle;rounded=0;orthogonalLoop=1;jettySize=auto;html=1;" edge="1" parent="1" source="eLe6Ruxtf43VfmzEIZZD-44">
          <mxGeometry relative="1" as="geometry">
            <mxPoint x="400" y="110" as="targetPoint" />
            <mxPoint x="49.75" y="620" as="sourcePoint" />
            <Array as="points">
              <mxPoint x="-30" y="110" />
            </Array>
          </mxGeometry>
        </mxCell>
        <mxCell id="eLe6Ruxtf43VfmzEIZZD-53" value="Nē" style="text;strokeColor=none;align=center;fillColor=none;html=1;verticalAlign=middle;whiteSpace=wrap;rounded=0;" vertex="1" parent="1">
          <mxGeometry x="80" y="730" width="60" height="30" as="geometry" />
        </mxCell>
        <mxCell id="eLe6Ruxtf43VfmzEIZZD-54" value="Jā" style="text;strokeColor=none;align=center;fillColor=none;html=1;verticalAlign=middle;whiteSpace=wrap;rounded=0;" vertex="1" parent="1">
          <mxGeometry x="-80" y="730" width="60" height="30" as="geometry" />
        </mxCell>
        <mxCell id="eLe6Ruxtf43VfmzEIZZD-55" value="Jā" style="text;strokeColor=none;align=center;fillColor=none;html=1;verticalAlign=middle;whiteSpace=wrap;rounded=0;" vertex="1" parent="1">
          <mxGeometry x="409.99" y="580" width="60" height="30" as="geometry" />
        </mxCell>
        <mxCell id="eLe6Ruxtf43VfmzEIZZD-56" value="Nē" style="text;strokeColor=none;align=center;fillColor=none;html=1;verticalAlign=middle;whiteSpace=wrap;rounded=0;" vertex="1" parent="1">
          <mxGeometry x="258.38" y="585" width="60" height="30" as="geometry" />
        </mxCell>
        <mxCell id="eLe6Ruxtf43VfmzEIZZD-57" value="Jā" style="text;strokeColor=none;align=center;fillColor=none;html=1;verticalAlign=middle;whiteSpace=wrap;rounded=0;" vertex="1" parent="1">
          <mxGeometry x="155" y="850" width="60" height="30" as="geometry" />
        </mxCell>
        <mxCell id="eLe6Ruxtf43VfmzEIZZD-58" value="Nē" style="text;strokeColor=none;align=center;fillColor=none;html=1;verticalAlign=middle;whiteSpace=wrap;rounded=0;" vertex="1" parent="1">
          <mxGeometry x="258.38" y="850" width="60" height="30" as="geometry" />
        </mxCell>
      </root>
    </mxGraphModel>
  </diagram>
</mxfile>
